<?xml version="1.0" encoding="utf-8"?>
<!-- Generator: Adobe Illustrator 27.2.0, SVG Export Plug-In . SVG Version: 6.00 Build 0)  -->
<svg width="58" height="58" version="1.1" id="Layer_1" xmlns="http://www.w3.org/2000/svg" xmlns:xlink="http://www.w3.org/1999/xlink" x="0px" y="0px"
	 viewBox="0 0 48 48" style="enable-background:new 0 0 48 48;" xml:space="preserve">
<style type="text/css">
	.st0{display:none;fill:#515151;}
	.st1{fill:#515151;}
	.st2{fill:#FFFFFF;}
</style>
<path class="st0" d="M24,0C10.7,0,0,10.7,0,24s10.7,24,24,24s24-10.7,24-24S37.3,0,24,0z M22,20.4L14.7,24l7.3,3.6V32l-12-5.9v-4.3
	L22,16V20.4z M38,26.1L26,32v-4.4l7.3-3.6L26,20.4V16l12,5.9V26.1z"/>
<ellipse class="st1" cx="24" cy="24" rx="23.4" ry="24"/>
<g>
	<g>
		<path class="st2" d="M6.7,23c2.9,0,3.3-1.4,3.3-2.7c0-1-0.2-2-0.3-3.1c-0.2-1-0.3-2-0.3-3c0-3.4,2.5-4.8,6-4.8h0.9v2h-0.7
			c-2.4,0-3.3,1.2-3.3,3.1c0,0.8,0.1,1.7,0.3,2.6c0.2,0.9,0.3,1.8,0.3,2.8c0,2.3-1.1,3.5-3,3.9V24c1.9,0.4,3,1.6,3,4
			c0,1-0.1,1.9-0.3,2.8c-0.2,0.9-0.3,1.7-0.3,2.6c0,2,0.9,3.2,3.3,3.2h0.7v2h-0.9c-3.4,0-6-1.3-6-5c0-1,0.2-2,0.3-3
			c0.2-1,0.3-2,0.3-2.9c0-1.1-0.4-2.7-3.3-2.7V23z"/>
		<path class="st2" d="M41.3,24.9c-2.9,0-3.3,1.6-3.3,2.7c0,1,0.2,2,0.3,2.9c0.2,1,0.3,2,0.3,3c0,3.7-2.6,5-6,5h-0.9v-2h0.7
			c2.3,0,3.3-1.1,3.3-3.2c0-0.9-0.2-1.7-0.3-2.6c-0.2-0.9-0.3-1.8-0.3-2.8c0-2.3,1.2-3.6,3-4v-0.1c-1.8-0.4-3-1.6-3-3.9
			c0-1,0.2-1.9,0.3-2.8c0.1-0.9,0.3-1.7,0.3-2.6c0-2-0.9-3.1-3.3-3.1h-0.7v-2h0.8c3.5,0,6,1.4,6,4.8c0,1-0.2,2-0.3,3
			c-0.2,1-0.3,2-0.3,3.1c0,1.3,0.4,2.7,3.3,2.7V24.9z"/>
	</g>
	<g>
		<circle class="st2" cx="17.7" cy="24" r="3.3"/>
		<circle class="st2" cx="30.7" cy="24" r="3.3"/>
	</g>
</g>
</svg>
