<svg width="24" height="24" viewBox="0 0 24 24" fill="none" xmlns="http://www.w3.org/2000/svg">
<g id="iconmonstr-fast-food-18 1">
<path id="Vector" fill-rule="evenodd" clip-rule="evenodd" d="M4 9V7.618C4.87 7.618 6 6.921 6 6H18.039C18.039 6.922 19.131 7.618 20 7.618V9H19L17 24H7L4.98 9H4ZM15.793 18H8.201L8.735 22H15.265L15.793 18ZM7 9L7.534 13H16.452L16.98 9H7ZM10.309 5.309C13.128 3.166 9.715 2.956 10.386 1.441C8.025 3.554 11.236 3.61 10.309 5.309ZM12.795 5.308C17.031 2.07 11.918 2.241 12.9 0C9.518 2.895 14.159 2.959 12.795 5.308Z" fill="white"/>
</g>
</svg>
